<?xml version="1.0" encoding="UTF-8" standalone="no"?>
<!-- Created with Inkscape (http://www.inkscape.org/) -->

<svg
   version="1.1"
   id="svg1"
   width="317.04965"
   height="145.48814"
   viewBox="0 0 317.04965 145.48815"
   sodipodi:docname="BEAFX_audio_inference_2.svg"
   inkscape:version="1.3 (0e150ed6c4, 2023-07-21)"
   inkscape:export-filename="BEAFX_audio_inference_2.pdf"
   inkscape:export-xdpi="96"
   inkscape:export-ydpi="96"
   xmlns:inkscape="http://www.inkscape.org/namespaces/inkscape"
   xmlns:sodipodi="http://sodipodi.sourceforge.net/DTD/sodipodi-0.dtd"
   xmlns="http://www.w3.org/2000/svg"
   xmlns:svg="http://www.w3.org/2000/svg">
  <defs
     id="defs1">
    <clipPath
       clipPathUnits="userSpaceOnUse"
       id="clipPath34">
      <path
         d="M 0,0 H 238 V 114 H 0 Z"
         id="path34" />
    </clipPath>
    <clipPath
       clipPathUnits="userSpaceOnUse"
       id="clipPath35">
      <path
         d="M 0,0 H 238 V 114 H 0 Z"
         id="path35" />
    </clipPath>
    <clipPath
       clipPathUnits="userSpaceOnUse"
       id="clipPath38">
      <path
         d="M 0,0 H 238 V 114 H 0 Z"
         id="path38" />
    </clipPath>
    <clipPath
       clipPathUnits="userSpaceOnUse"
       id="clipPath39">
      <path
         d="M 0,0 H 238 V 114 H 0 Z"
         id="path39" />
    </clipPath>
    <clipPath
       clipPathUnits="userSpaceOnUse"
       id="clipPath42">
      <path
         d="M 0,0 H 238 V 114 H 0 Z"
         id="path42" />
    </clipPath>
    <clipPath
       clipPathUnits="userSpaceOnUse"
       id="clipPath43">
      <path
         d="M 0,0 H 238 V 114 H 0 Z"
         transform="scale(1.3333333)"
         id="path43" />
    </clipPath>
    <clipPath
       clipPathUnits="userSpaceOnUse"
       id="clipPath44">
      <path
         d="M 0,0 H 238 V 114 H 0 Z"
         id="path44" />
    </clipPath>
    <clipPath
       clipPathUnits="userSpaceOnUse"
       id="clipPath45">
      <path
         d="M 0,0 H 238 V 114 H 0 Z"
         transform="scale(1.3333333)"
         id="path45" />
    </clipPath>
    <clipPath
       clipPathUnits="userSpaceOnUse"
       id="clipPath48">
      <path
         d="M 0,0 H 238 V 114 H 0 Z"
         id="path48" />
    </clipPath>
    <clipPath
       clipPathUnits="userSpaceOnUse"
       id="clipPath49">
      <path
         d="M 0,0 H 238 V 114 H 0 Z"
         transform="scale(1.3333333)"
         id="path49" />
    </clipPath>
    <clipPath
       clipPathUnits="userSpaceOnUse"
       id="clipPath50">
      <path
         d="M 0,0 H 238 V 114 H 0 Z"
         id="path50" />
    </clipPath>
    <clipPath
       clipPathUnits="userSpaceOnUse"
       id="clipPath51">
      <path
         d="M 0,0 H 238 V 114 H 0 Z"
         transform="scale(1.3333333)"
         id="path51" />
    </clipPath>
    <clipPath
       clipPathUnits="userSpaceOnUse"
       id="clipPath54">
      <path
         d="M 0,0 H 238 V 114 H 0 Z"
         id="path54" />
    </clipPath>
    <clipPath
       clipPathUnits="userSpaceOnUse"
       id="clipPath55">
      <path
         d="M 0,0 H 238 V 114 H 0 Z"
         transform="scale(1.3333333)"
         id="path55" />
    </clipPath>
    <clipPath
       clipPathUnits="userSpaceOnUse"
       id="clipPath56">
      <path
         d="M 0,0 H 238 V 114 H 0 Z"
         id="path56" />
    </clipPath>
    <clipPath
       clipPathUnits="userSpaceOnUse"
       id="clipPath57">
      <path
         d="M 0,0 H 238 V 114 H 0 Z"
         transform="scale(1.3333333)"
         id="path57" />
    </clipPath>
  </defs>
  <sodipodi:namedview
     id="namedview1"
     pagecolor="#ffffff"
     bordercolor="#000000"
     borderopacity="0.25"
     inkscape:showpageshadow="2"
     inkscape:pageopacity="0.0"
     inkscape:pagecheckerboard="0"
     inkscape:deskcolor="#d1d1d1"
     showgrid="false"
     inkscape:zoom="2.1343697"
     inkscape:cx="150.16142"
     inkscape:cy="99.561006"
     inkscape:window-width="1536"
     inkscape:window-height="889"
     inkscape:window-x="-8"
     inkscape:window-y="1072"
     inkscape:window-maximized="1"
     inkscape:current-layer="g1">
    <inkscape:page
       x="0"
       y="0"
       inkscape:label="1"
       id="page1"
       width="317.04965"
       height="145.48814"
       margin="0"
       bleed="0" />
  </sodipodi:namedview>
  <g
     id="g1"
     inkscape:groupmode="layer"
     inkscape:label="1"
     transform="translate(0,-5.6222443)">
    <path
       id="path1"
       d="m 23.434,15.063 h 123.425 c 3.332,0 6.012,2.683 6.012,6.015 v 48.824 c 0,3.328 -2.68,6.012 -6.012,6.012 H 23.434 c -3.332,0 -6.016,-2.684 -6.016,-6.012 V 21.078 c 0,-3.332 2.684,-6.015 6.016,-6.015 z"
       style="fill:#ffe5e5;fill-opacity:1;fill-rule:evenodd;stroke:#000000;stroke-width:0.751178;stroke-linecap:butt;stroke-linejoin:miter;stroke-miterlimit:4;stroke-dasharray:none;stroke-opacity:1"
       transform="scale(1.3333333)" />
    <path
       id="path2"
       d="m 57.926,26.949 h 50.058 c 3.516,0 6.344,2.832 6.344,6.344 v 31.52 c 0,3.515 -2.828,6.343 -6.344,6.343 H 57.926 c -3.512,0 -6.34,-2.828 -6.34,-6.343 v -31.52 c 0,-3.512 2.828,-6.344 6.34,-6.344 z"
       style="fill:#ffffff;fill-opacity:1;fill-rule:evenodd;stroke:#000000;stroke-width:0.751178;stroke-linecap:butt;stroke-linejoin:miter;stroke-miterlimit:4;stroke-dasharray:2.25354, 0.751178;stroke-dashoffset:0;stroke-opacity:1"
       transform="scale(1.3333333)" />
    <path
       id="path3"
       d="M 14.172,47.855 C 14.172,51.77 11,54.941 7.086,54.941 3.172,54.941 0,51.77 0,47.855 c 0,-3.914 3.172,-7.089 7.086,-7.089 3.914,0 7.086,3.175 7.086,7.089 z"
       style="fill:#ffb77d;fill-opacity:1;fill-rule:nonzero;stroke:none"
       transform="scale(1.3333333)" />
    <path
       id="path4"
       d="m 10.039,45.105 c 0.047,-0.203 0.047,-0.218 0.047,-0.25 0,-0.25 -0.172,-0.484 -0.516,-0.484 -0.562,0 -0.687,0.516 -0.765,0.813 l -0.282,1.125 c -0.14,0.531 -0.343,1.375 -0.468,1.812 -0.047,0.25 -0.391,0.5 -0.422,0.531 -0.11,0.078 -0.375,0.25 -0.735,0.25 -0.64,0 -0.656,-0.531 -0.656,-0.781 0,-0.672 0.328,-1.531 0.641,-2.312 0.109,-0.282 0.14,-0.36 0.14,-0.547 0,-0.625 -0.625,-0.969 -1.234,-0.969 -1.156,0 -1.703,1.469 -1.703,1.687 0,0.157 0.172,0.157 0.266,0.157 0.125,0 0.203,0 0.25,-0.141 0.359,-1.203 0.968,-1.312 1.125,-1.312 0.078,0 0.187,0 0.187,0.218 0,0.25 -0.125,0.532 -0.187,0.719 -0.422,1.078 -0.657,1.703 -0.657,2.266 0,1.234 1.094,1.422 1.735,1.422 0.281,0 0.64,-0.047 1.047,-0.329 -0.297,1.329 -1.125,2.047 -1.875,2.047 -0.141,0 -0.454,-0.031 -0.657,-0.156 0.344,-0.141 0.516,-0.437 0.516,-0.734 0,-0.391 -0.313,-0.5 -0.531,-0.5 -0.407,0 -0.782,0.359 -0.782,0.828 0,0.562 0.579,0.953 1.454,0.953 1.25,0 2.687,-0.844 3.031,-2.188 z"
       style="fill:#000000;fill-opacity:1;fill-rule:nonzero;stroke:none"
       transform="scale(1.3333333)" />
    <path
       id="path5"
       d="m -68.457,22.82 h 41.203 c 1.258,0 2.27,1.012 2.27,2.266 v 21.57 c 0,1.258 -1.012,2.27 -2.27,2.27 h -41.203 c -1.254,0 -2.266,-1.012 -2.266,-2.27 v -21.57 c 0,-1.254 1.012,-2.266 2.266,-2.266 z"
       style="fill:#ffffff;fill-opacity:1;fill-rule:nonzero;stroke:#ff0000;stroke-width:0.467717;stroke-linecap:butt;stroke-linejoin:miter;stroke-miterlimit:4;stroke-dasharray:none;stroke-opacity:1"
       transform="matrix(0,-1.3333333,1.3333333,0,0,0)" />
    <text
       id="text5"
       xml:space="preserve"
       transform="matrix(0,-1.3333333,1.3333333,0,52.821101,88.129037)"><tspan
         style="font-variant:normal;font-weight:normal;font-size:11px;font-family:'Times New Roman';writing-mode:lr-tb;fill:#000000;fill-opacity:1;fill-rule:nonzero;stroke:none"
         x="0 6.7192383 12.219238 17.101562 22.601562 28.101562 32.983887"
         y="0"
         sodipodi:role="line"
         id="tspan5">Encoder</tspan></text>
    <path
       id="path6"
       d="m 171.227,47.855 c 0,3.915 -3.172,7.086 -7.086,7.086 -3.914,0 -7.086,-3.171 -7.086,-7.086 0,-3.914 3.172,-7.089 7.086,-7.089 3.914,0 7.086,3.175 7.086,7.089 z"
       style="fill:#ffb77d;fill-opacity:1;fill-rule:nonzero;stroke:none"
       transform="scale(1.3333333)" />
    <path
       id="path7"
       d="m 160.543,45.754 c 0.156,-0.016 0.297,0 0.453,-0.016 0.438,-0.015 0.969,-0.047 1.406,-0.062 -0.312,0.297 -0.484,0.469 -1.578,1.297 -2.203,1.687 -2.453,2.39 -2.453,2.437 0,0.156 0.156,0.156 0.25,0.156 0.188,0 0.188,-0.015 0.266,-0.125 0.39,-0.546 0.797,-0.625 0.968,-0.625 0.297,0 0.547,0.188 0.719,0.313 0.328,0.234 0.61,0.437 1.016,0.437 1.219,0 2.015,-1.343 2.015,-1.75 0,-0.156 -0.187,-0.156 -0.25,-0.156 -0.078,0 -0.203,0 -0.234,0.094 -0.094,0.219 -0.203,0.484 -0.937,0.578 -0.063,0 -2.188,0.094 -2.438,0.109 0.313,-0.296 0.484,-0.468 1.594,-1.312 2.203,-1.688 2.453,-2.391 2.453,-2.438 0,-0.14 -0.156,-0.14 -0.266,-0.14 -0.156,0 -0.172,0 -0.25,0.094 -0.25,0.39 -0.468,0.64 -0.718,0.64 -0.282,0 -0.532,-0.172 -0.782,-0.344 -0.265,-0.203 -0.531,-0.39 -0.937,-0.39 -0.953,0 -1.578,0.969 -1.578,1.297 0,0.156 0.172,0.156 0.265,0.156 0.094,0 0.219,0 0.25,-0.141 0.141,-0.078 0.219,-0.093 0.547,-0.109 z"
       style="fill:#000000;fill-opacity:1;fill-rule:nonzero;stroke:none"
       transform="scale(1.3333333)" />
    <path
       id="path8"
       d="m 167.582,46.332 c 0.063,-0.281 0.078,-0.297 0.406,-0.297 h 0.594 c 0.828,0 0.922,0.266 0.922,0.656 0,0.204 -0.047,0.547 -0.047,0.594 -0.016,0.078 -0.031,0.156 -0.031,0.172 0,0.094 0.078,0.125 0.125,0.125 0.094,0 0.125,-0.047 0.14,-0.203 l 0.219,-1.5 c 0,-0.109 -0.094,-0.109 -0.234,-0.109 h -4.703 c -0.188,0 -0.219,0 -0.266,0.171 l -0.484,1.375 c -0.016,0.047 -0.047,0.11 -0.047,0.157 0,0.062 0.062,0.109 0.125,0.109 0.094,0 0.109,-0.047 0.156,-0.172 0.453,-1.281 0.672,-1.375 1.891,-1.375 h 0.312 c 0.235,0 0.25,0.016 0.25,0.078 0,0.016 -0.031,0.172 -0.047,0.203 l -1.047,4.188 c -0.078,0.312 -0.093,0.391 -0.921,0.391 -0.266,0 -0.344,0 -0.344,0.156 0,0 0,0.109 0.14,0.109 0.219,0 0.766,-0.031 0.985,-0.031 h 0.672 c 0.218,0 0.781,0.031 1,0.031 0.062,0 0.187,0 0.187,-0.156 0,-0.109 -0.094,-0.109 -0.297,-0.109 -0.203,0 -0.265,0 -0.468,-0.016 -0.25,-0.016 -0.282,-0.047 -0.282,-0.156 0,-0.032 0,-0.063 0.032,-0.141 z"
       style="fill:#000000;fill-opacity:1;fill-rule:nonzero;stroke:none"
       transform="scale(1.3333333)" />
    <path
       id="path9"
       d="m 111.762,47.855 c 0,3.915 -3.172,7.086 -7.086,7.086 -3.914,0 -7.086,-3.171 -7.086,-7.086 0,-3.914 3.172,-7.089 7.086,-7.089 3.914,0 7.086,3.175 7.086,7.089 z"
       style="fill:#ffb77d;fill-opacity:1;fill-rule:nonzero;stroke:none"
       transform="scale(1.3333333)" />
    <path
       id="path10"
       d="m 102.102,45.691 c 0.156,-0.015 0.296,0 0.453,-0.015 0.437,-0.016 0.968,-0.047 1.406,-0.063 -0.313,0.297 -0.484,0.469 -1.578,1.297 -2.203,1.688 -2.453,2.391 -2.453,2.438 0,0.156 0.156,0.156 0.25,0.156 0.187,0 0.187,-0.016 0.265,-0.125 0.391,-0.547 0.797,-0.625 0.969,-0.625 0.297,0 0.547,0.187 0.719,0.312 0.328,0.235 0.609,0.438 1.015,0.438 1.219,0 2.016,-1.344 2.016,-1.75 0,-0.156 -0.187,-0.156 -0.25,-0.156 -0.078,0 -0.203,0 -0.234,0.093 -0.094,0.219 -0.203,0.485 -0.938,0.579 -0.062,0 -2.187,0.093 -2.437,0.109 0.312,-0.297 0.484,-0.469 1.593,-1.313 2.204,-1.687 2.454,-2.39 2.454,-2.437 0,-0.141 -0.157,-0.141 -0.266,-0.141 -0.156,0 -0.172,0 -0.25,0.094 -0.25,0.391 -0.469,0.641 -0.719,0.641 -0.281,0 -0.531,-0.172 -0.781,-0.344 -0.266,-0.203 -0.531,-0.391 -0.938,-0.391 -0.953,0 -1.578,0.969 -1.578,1.297 0,0.156 0.172,0.156 0.266,0.156 0.094,0 0.219,0 0.25,-0.14 0.141,-0.078 0.219,-0.094 0.547,-0.11 z"
       style="fill:#000000;fill-opacity:1;fill-rule:nonzero;stroke:none"
       transform="scale(1.3333333)" />
    <path
       id="path11"
       d="m 109.422,48.5 c 0,-0.844 -0.078,-1.359 -0.344,-1.875 -0.344,-0.703 -1,-0.875 -1.437,-0.875 -1,0 -1.375,0.75 -1.485,0.969 -0.281,0.578 -0.297,1.375 -0.297,1.781 0,0.531 0.016,1.328 0.407,1.969 0.359,0.594 0.953,0.75 1.375,0.75 0.39,0 1.062,-0.125 1.468,-0.906 0.297,-0.579 0.313,-1.297 0.313,-1.813 z m -1.781,2.484 c -0.266,0 -0.813,-0.125 -0.985,-0.953 -0.093,-0.453 -0.093,-1.203 -0.093,-1.625 0,-0.547 0,-1.109 0.093,-1.547 0.172,-0.812 0.782,-0.89 0.985,-0.89 0.265,0 0.828,0.14 0.984,0.859 0.094,0.438 0.094,1.047 0.094,1.578 0,0.469 0,1.188 -0.094,1.641 -0.172,0.828 -0.719,0.937 -0.984,0.937 z"
       style="fill:#000000;fill-opacity:1;fill-rule:nonzero;stroke:none"
       transform="scale(1.3333333)" />
    <path
       id="path12"
       d="m 180.285,40.379 h 29.828 c 1.258,0 2.27,1.012 2.27,2.266 v 10.418 c 0,1.253 -1.012,2.265 -2.27,2.265 h -29.828 c -1.258,0 -2.265,-1.012 -2.265,-2.265 V 42.645 c 0,-1.254 1.007,-2.266 2.265,-2.266 z"
       style="fill:#d8feff;fill-opacity:1;fill-rule:nonzero;stroke:#000000;stroke-width:0.467717;stroke-linecap:butt;stroke-linejoin:miter;stroke-miterlimit:4;stroke-dasharray:none;stroke-opacity:1"
       transform="scale(1.3333333)" />
    <text
       id="text12"
       xml:space="preserve"
       transform="matrix(1.3333333,0,0,1.3333333,241.64974,68.771591)"><tspan
         style="font-variant:normal;font-weight:normal;font-size:11px;font-family:'Times New Roman';writing-mode:lr-tb;fill:#000000;fill-opacity:1;fill-rule:nonzero;stroke:none"
         x="0 7.9438477 15.887695 22.005371"
         y="0"
         sodipodi:role="line"
         id="tspan12">DDSP</tspan></text>
    <path
       id="path13"
       d="m 171.227,47.855 h 6.793"
       style="fill:none;stroke:#000000;stroke-width:0.749999;stroke-linecap:butt;stroke-linejoin:miter;stroke-miterlimit:4;stroke-dasharray:none;stroke-opacity:1"
       transform="scale(1.3333333)" />
    <path
       id="path14"
       d="m 178.77,47.855 -2.25,2.25 h -1.5 l 2.25,-2.25 -2.25,-2.25 h 1.5 z"
       style="fill:#000000;fill-opacity:1;fill-rule:evenodd;stroke:none"
       transform="scale(1.3333333)" />
    <path
       id="path15"
       d="m 235.613,47.855 c 0,3.915 -3.172,7.086 -7.086,7.086 -3.914,0 -7.086,-3.171 -7.086,-7.086 0,-3.914 3.172,-7.089 7.086,-7.089 3.914,0 7.086,3.175 7.086,7.089 z"
       style="fill:#ffb77d;fill-opacity:1;fill-rule:nonzero;stroke:none"
       transform="scale(1.3333333)" />
    <path
       id="path16"
       d="m 229.293,42.895 -1.453,1.484 0.203,0.187 1.25,-1.109 1.266,1.109 0.187,-0.187 z"
       style="fill:#000000;fill-opacity:1;fill-rule:nonzero;stroke:none"
       transform="scale(1.3333333)" />
    <path
       id="path17"
       d="m 231.48,46.5 c 0.047,-0.203 0.047,-0.219 0.047,-0.25 0,-0.25 -0.172,-0.484 -0.515,-0.484 -0.563,0 -0.688,0.515 -0.766,0.812 l -0.281,1.125 c -0.141,0.531 -0.344,1.375 -0.469,1.813 -0.047,0.25 -0.391,0.5 -0.422,0.531 -0.109,0.078 -0.375,0.25 -0.734,0.25 -0.641,0 -0.656,-0.531 -0.656,-0.781 0,-0.672 0.328,-1.532 0.64,-2.313 0.11,-0.281 0.141,-0.359 0.141,-0.547 0,-0.625 -0.625,-0.968 -1.235,-0.968 -1.156,0 -1.703,1.468 -1.703,1.687 0,0.156 0.172,0.156 0.266,0.156 0.125,0 0.203,0 0.25,-0.14 0.359,-1.203 0.969,-1.313 1.125,-1.313 0.078,0 0.187,0 0.187,0.219 0,0.25 -0.125,0.531 -0.187,0.719 -0.422,1.078 -0.656,1.703 -0.656,2.265 0,1.235 1.093,1.422 1.734,1.422 0.281,0 0.641,-0.047 1.047,-0.328 -0.297,1.328 -1.125,2.047 -1.875,2.047 -0.141,0 -0.453,-0.031 -0.656,-0.156 0.343,-0.141 0.515,-0.438 0.515,-0.735 0,-0.39 -0.312,-0.5 -0.531,-0.5 -0.406,0 -0.781,0.36 -0.781,0.828 0,0.563 0.578,0.954 1.453,0.954 1.25,0 2.687,-0.844 3.031,-2.188 z"
       style="fill:#000000;fill-opacity:1;fill-rule:nonzero;stroke:none"
       transform="scale(1.3333333)" />
    <path
       id="path18"
       d="m 212.383,47.855 h 9.058"
       style="fill:none;stroke:#000000;stroke-width:0.749999;stroke-linecap:butt;stroke-linejoin:miter;stroke-miterlimit:4;stroke-dasharray:none;stroke-opacity:1"
       transform="scale(1.3333333)" />
    <path
       id="path19"
       d="m 222.191,47.855 -2.25,2.25 h -1.5 l 2.25,-2.25 -2.25,-2.25 h 1.5 z"
       style="fill:#000000;fill-opacity:1;fill-rule:evenodd;stroke:none"
       transform="scale(1.3333333)" />
    <path
       id="path20"
       d="m -69.883,120.355 h 44.055 c 1.258,0 2.269,1.012 2.269,2.27 v 22.434 c 0,1.257 -1.011,2.265 -2.269,2.265 h -44.055 c -1.254,0 -2.265,-1.008 -2.265,-2.265 v -22.434 c 0,-1.258 1.011,-2.27 2.265,-2.27 z"
       style="fill:#ffffff;fill-opacity:1;fill-rule:nonzero;stroke:#ff0000;stroke-width:0.467717;stroke-linecap:butt;stroke-linejoin:miter;stroke-miterlimit:4;stroke-dasharray:none;stroke-opacity:1"
       transform="matrix(0,-1.3333333,1.3333333,0,0,0)" />
    <text
       id="text20"
       xml:space="preserve"
       transform="matrix(0,-1.3333333,1.3333333,0,175.03923,93.942799)"><tspan
         style="font-variant:normal;font-weight:normal;font-size:9px;font-family:'Times New Roman';writing-mode:lr-tb;fill:#000000;fill-opacity:1;fill-rule:nonzero;stroke:none"
         x="0 6.4995117 10.999512 13.996582 20.99707 24.991699 27.492188 29.992676 33.987305 36.487793 40.987793"
         y="0"
         sodipodi:role="line"
         id="tspan20">Normalizing</tspan><tspan
         style="font-variant:normal;font-weight:normal;font-size:9px;font-family:'Times New Roman';writing-mode:lr-tb;fill:#000000;fill-opacity:1;fill-rule:nonzero;stroke:none"
         x="11.739987 16.745358 19.245846 23.745846 30.245358"
         y="11.25"
         sodipodi:role="line"
         id="tspan21">Flows</tspan></text>
    <path
       id="path21"
       d="m 147.324,47.855 h 9.731"
       style="fill:none;stroke:#000000;stroke-width:0.749999;stroke-linecap:butt;stroke-linejoin:miter;stroke-miterlimit:4;stroke-dasharray:none;stroke-opacity:1"
       transform="scale(1.3333333)" />
    <path
       id="path22"
       d="m 157.805,47.855 -2.25,2.25 h -1.5 l 2.25,-2.25 -2.25,-2.25 h 1.5 z"
       style="fill:#000000;fill-opacity:1;fill-rule:evenodd;stroke:none"
       transform="scale(1.3333333)" />
    <path
       id="path23"
       d="m 87.844,47.855 c 0,7.313 -5.926,13.239 -13.239,13.239 -7.312,0 -13.242,-5.926 -13.242,-13.239 0,-7.312 5.93,-13.242 13.242,-13.242 7.313,0 13.239,5.93 13.239,13.242 z"
       style="fill:#ffffff;fill-opacity:1;fill-rule:evenodd;stroke:#000000;stroke-width:0.283465;stroke-linecap:butt;stroke-linejoin:miter;stroke-miterlimit:4;stroke-dasharray:0.566929, 0.566929;stroke-dashoffset:0;stroke-opacity:1"
       transform="scale(1.3333333)" />
    <path
       id="path24"
       d="m 76.438,47.855 c 0,1.012 -0.821,1.833 -1.833,1.833 -1.011,0 -1.835,-0.821 -1.835,-1.833 0,-1.015 0.824,-1.835 1.835,-1.835 1.012,0 1.833,0.82 1.833,1.835 z"
       style="fill:#000000;fill-opacity:1;fill-rule:evenodd;stroke:#000000;stroke-width:0.751178;stroke-linecap:butt;stroke-linejoin:miter;stroke-miterlimit:4;stroke-dasharray:none;stroke-opacity:1"
       transform="scale(1.3333333)" />
    <path
       id="path25"
       d="m 81.023,54.082 c 0,0.617 -0.5,1.117 -1.117,1.117 -0.621,0 -1.121,-0.5 -1.121,-1.117 0,-0.621 0.5,-1.121 1.121,-1.121 0.617,0 1.117,0.5 1.117,1.121 z"
       style="fill:#000000;fill-opacity:1;fill-rule:evenodd;stroke:#000000;stroke-width:0.751178;stroke-linecap:butt;stroke-linejoin:miter;stroke-miterlimit:4;stroke-dasharray:none;stroke-opacity:1"
       transform="scale(1.3333333)" />
    <path
       id="path26"
       d="M 48.992,40.125 74.605,39.988 V 46.02"
       style="fill:none;stroke:#000000;stroke-width:0.751178;stroke-linecap:butt;stroke-linejoin:miter;stroke-miterlimit:4;stroke-dasharray:none;stroke-opacity:1"
       transform="scale(1.3333333)" />
    <path
       id="path27"
       d="M 48.992,56.664 H 64.723"
       style="fill:none;stroke:#000000;stroke-width:0.751178;stroke-linecap:butt;stroke-linejoin:miter;stroke-miterlimit:4;stroke-dasharray:none;stroke-opacity:1"
       transform="scale(1.3333333)" />
    <path
       id="path28"
       d="m 60.781,35.559 c 0,-0.063 -0.015,-0.094 -0.047,-0.094 -0.171,0 -0.156,0.64 -0.75,0.64 -0.156,0 -0.218,-0.14 -0.218,-0.343 0,-0.282 0.109,-0.703 0.218,-1.141 l 0.75,-3.031 -0.937,0.172 -0.875,3.281 c -0.031,0.047 -0.672,0.953 -1.328,0.953 -0.625,0 -0.828,-0.562 -0.828,-0.984 0,-0.141 0.031,-0.25 0.047,-0.36 l 0.781,-3.062 -0.813,0.14 -1.187,4.672 c -0.235,0.891 -0.672,2.063 -0.75,2.25 h 0.953 L 56.5,35.934 h 0.016 c 0,0.015 0.031,0.593 0.828,0.593 0.859,0 1.406,-0.859 1.515,-1 -0.015,0.094 -0.031,0.172 -0.031,0.25 0,0.719 0.672,0.75 0.86,0.75 h 0.031 c 0.75,0 1.062,-0.718 1.062,-0.968 z"
       style="fill:#000000;fill-opacity:1;fill-rule:nonzero;stroke:none"
       transform="scale(1.3333333)" />
    <path
       id="path29"
       d="m 63.223,64.246 h -0.25 c -0.172,0.828 -0.594,1.328 -1.438,1.328 H 58.16 l 2.719,-3.109 -2.359,-2.844 h 2.265 c 0.969,0 1.516,0.266 1.688,1.375 h 0.265 v -1.75 h -5.734 v 0.156 l 2.906,3.532 -2.906,3.375 v 0.156 h 5.906 z"
       style="fill:#000000;fill-opacity:1;fill-rule:nonzero;stroke:none"
       transform="scale(1.3333333)" />
    <path
       id="path30"
       d="M 80.992,53.809 97.813,49.582"
       style="fill:none;stroke:#000000;stroke-width:0.751181;stroke-linecap:butt;stroke-linejoin:miter;stroke-miterlimit:4;stroke-dasharray:2.25354, 0.751181;stroke-dashoffset:0;stroke-opacity:1"
       transform="scale(1.3333333)" />
    <path
       id="path31"
       d="m 98.539,49.398 -1.633,2.735 -1.461,0.367 1.637,-2.734 -2.734,-1.637 1.457,-0.367 z"
       style="fill:#000000;fill-opacity:1;fill-rule:evenodd;stroke:none"
       transform="scale(1.3333333)" />
    <path
       id="path32"
       d="m 111.773,47.855 h 8.582"
       style="fill:none;stroke:#000000;stroke-width:0.749999;stroke-linecap:butt;stroke-linejoin:miter;stroke-miterlimit:4;stroke-dasharray:none;stroke-opacity:1"
       transform="scale(1.3333333)" />
    <path
       id="path33"
       d="m 121.105,47.855 -2.25,2.25 h -1.5 l 2.25,-2.25 -2.25,-2.25 h 1.5 z"
       style="fill:#000000;fill-opacity:1;fill-rule:evenodd;stroke:none"
       transform="scale(1.3333333)" />
    <text
       id="text33"
       xml:space="preserve"
       transform="matrix(1.3333333,0,0,1.3333333,67.69424,30.634095)"><tspan
         style="font-variant:normal;font-weight:normal;font-size:6.00001px;font-family:Arial;writing-mode:lr-tb;fill:#000000;fill-opacity:1;fill-rule:nonzero;stroke:none"
         x="0 4.0019598 7.3388796 10.338884 13.675804 15.342799 18.679718 20.012728 23.012733 24.679729 26.677778 28.010788 31.347708 33.014702 34.681698 37.681702 41.018623 46.016678 49.3536 50.686607 52.019619 55.356537"
         y="0"
         sodipodi:role="line"
         id="tspan33">Base distrib. sampling</tspan></text>
    <g
       opacity="0.386"
       id="g37">
      <path
         d="m 202.285,25.961 c 0,3.914 -3.172,7.086 -7.086,7.086 -3.914,0 -7.086,-3.172 -7.086,-7.086 0,-3.914 3.172,-7.086 7.086,-7.086 3.914,0 7.086,3.172 7.086,7.086 z"
         style="fill:#ffb77d;fill-opacity:1;fill-rule:nonzero;stroke:none"
         transform="scale(1.3333333)"
         clip-path="url(#clipPath34)"
         id="path36" />
      <path
         d="m 197.535,24 c -0.39,0.109 -0.594,0.484 -0.594,0.75 0,0.25 0.188,0.5 0.547,0.5 0.391,0 0.797,-0.312 0.797,-0.844 0,-0.578 -0.578,-0.953 -1.25,-0.953 -0.625,0 -1.031,0.469 -1.172,0.656 -0.265,-0.453 -0.875,-0.656 -1.5,-0.656 -1.375,0 -2.109,1.328 -2.109,1.688 0,0.156 0.156,0.156 0.25,0.156 0.141,0 0.219,0 0.25,-0.141 0.328,-0.984 1.109,-1.312 1.562,-1.312 0.407,0 0.61,0.187 0.61,0.547 0,0.203 -0.156,0.797 -0.25,1.187 l -0.375,1.5 c -0.172,0.672 -0.563,0.985 -0.938,0.985 -0.047,0 -0.297,0 -0.515,-0.157 0.39,-0.109 0.593,-0.484 0.593,-0.75 0,-0.25 -0.187,-0.5 -0.546,-0.5 -0.391,0 -0.782,0.313 -0.782,0.844 0,0.578 0.578,0.969 1.235,0.969 0.625,0 1.031,-0.469 1.172,-0.672 0.265,0.453 0.875,0.672 1.5,0.672 1.375,0 2.125,-1.344 2.125,-1.703 0,-0.157 -0.172,-0.157 -0.266,-0.157 -0.141,0 -0.203,0 -0.25,0.141 -0.328,1 -1.109,1.313 -1.547,1.313 -0.422,0 -0.609,-0.188 -0.609,-0.532 0,-0.234 0.14,-0.812 0.234,-1.218 0.078,-0.282 0.328,-1.313 0.375,-1.485 0.172,-0.656 0.547,-0.984 0.938,-0.984 0.046,0 0.296,0 0.515,0.156 z"
         style="fill:#000000;fill-opacity:1;fill-rule:nonzero;stroke:none"
         transform="scale(1.3333333)"
         clip-path="url(#clipPath35)"
         id="path37" />
    </g>
    <g
       opacity="0.39"
       id="g41">
      <path
         d="m 195.199,33.047 v 7.332"
         style="fill:none;stroke:#000000;stroke-width:0.749999;stroke-linecap:butt;stroke-linejoin:miter;stroke-miterlimit:4;stroke-dasharray:none;stroke-opacity:1"
         transform="scale(1.3333333)"
         clip-path="url(#clipPath38)"
         id="path40" />
      <path
         d="m 195.199,41.129 -2.25,-2.25 v -1.5 l 2.25,2.25 2.25,-2.25 v 1.5 z"
         style="fill:#000000;fill-opacity:1;fill-rule:evenodd;stroke:none"
         transform="scale(1.3333333)"
         clip-path="url(#clipPath39)"
         id="path41" />
    </g>
    <text
       id="text41"
       xml:space="preserve"
       transform="matrix(1.3333333,0,0,1.3333333,186.96356,148.52054)"><tspan
         style="font-variant:normal;font-weight:normal;font-size:9px;font-family:'Times New Roman';writing-mode:lr-tb;fill:#000000;fill-opacity:1;fill-rule:nonzero;stroke:none"
         x="0 3.9946289 8.4946289 10.995117 13.992188 18.492188 22.992188 46.122189 49.119259 53.113888 57.108517 61.608517 66.108513 69.610954 72.111443 75.108513 79.608513 83.603142 86.10363 88.604118 93.104118"
         y="0"
         sodipodi:role="line"
         id="tspan41">entropyreconstruction</tspan></text>
    <g
       opacity="0.327103"
       id="g48">
      <g
         clip-path="url(#clipPath43)"
         id="g46">
        <path
           d="m 7.289,54.941 v 31.512 c 0,3.805 3.086,6.887 6.891,6.887 h 122.488"
           style="fill:none;stroke:#000000;stroke-width:0.751178;stroke-linecap:butt;stroke-linejoin:miter;stroke-miterlimit:4;stroke-dasharray:2.25354, 0.751178;stroke-dashoffset:0;stroke-opacity:1"
           transform="scale(1.3333333)"
           clip-path="url(#clipPath42)"
           id="path46" />
      </g>
      <g
         clip-path="url(#clipPath45)"
         id="g47">
        <path
           d="m 137.418,93.34 -2.254,2.254 h -1.5 l 2.254,-2.254 -2.254,-2.254 h 1.5 z"
           style="fill:#000000;fill-opacity:1;fill-rule:evenodd;stroke:none"
           transform="scale(1.3333333)"
           clip-path="url(#clipPath44)"
           id="path47" />
      </g>
    </g>
    <g
       opacity="0.327103"
       id="g54">
      <g
         clip-path="url(#clipPath49)"
         id="g52">
        <path
           d="M 164.141,54.941 V 79.195"
           style="fill:none;stroke:#000000;stroke-width:0.751178;stroke-linecap:butt;stroke-linejoin:miter;stroke-miterlimit:4;stroke-dasharray:2.25354, 0.751178;stroke-dashoffset:0;stroke-opacity:1"
           transform="scale(1.3333333)"
           clip-path="url(#clipPath48)"
           id="path52" />
      </g>
      <g
         clip-path="url(#clipPath51)"
         id="g53">
        <path
           d="m 164.141,79.949 -2.254,-2.254 v -1.504 l 2.254,2.254 2.254,-2.254 v 1.504 z"
           style="fill:#000000;fill-opacity:1;fill-rule:evenodd;stroke:none"
           transform="scale(1.3333333)"
           clip-path="url(#clipPath50)"
           id="path53" />
      </g>
    </g>
    <g
       opacity="0.327103"
       id="g60">
      <g
         clip-path="url(#clipPath55)"
         id="g58">
        <path
           d="M 228.527,54.941 V 79.195"
           style="fill:none;stroke:#000000;stroke-width:0.751178;stroke-linecap:butt;stroke-linejoin:miter;stroke-miterlimit:4;stroke-dasharray:2.25354, 0.751178;stroke-dashoffset:0;stroke-opacity:1"
           transform="scale(1.3333333)"
           clip-path="url(#clipPath54)"
           id="path58" />
      </g>
      <g
         clip-path="url(#clipPath57)"
         id="g59">
        <path
           d="m 228.527,79.949 -2.254,-2.254 v -1.504 l 2.254,2.254 2.254,-2.254 v 1.504 z"
           style="fill:#000000;fill-opacity:1;fill-rule:evenodd;stroke:none"
           transform="scale(1.3333333)"
           clip-path="url(#clipPath56)"
           id="path59" />
      </g>
    </g>
    <text
       id="text60"
       xml:space="preserve"
       x="22.359512"
       y="15.805861"
       style="font-size:16px;stroke-width:1.33333"><tspan
         style="font-variant:normal;font-weight:normal;font-size:14.6667px;font-family:'Times New Roman';writing-mode:lr-tb;fill:#000000;fill-opacity:1;fill-rule:nonzero;stroke:none;stroke-width:1.33333"
         sodipodi:role="line"
         id="tspan60"
         x="22.359512"
         y="15.805861">Neural network</tspan></text>
    <path
       id="path60"
       d="M 14.172,47.855 H 22.82"
       style="fill:none;stroke:#000000;stroke-width:0.749999;stroke-linecap:butt;stroke-linejoin:miter;stroke-miterlimit:4;stroke-dasharray:none;stroke-opacity:1"
       transform="scale(1.3333333)" />
    <path
       id="path61"
       d="m 23.57,47.855 -2.25,2.25 h -1.5 l 2.25,-2.25 -2.25,-2.25 h 1.5 z"
       style="fill:#000000;fill-opacity:1;fill-rule:evenodd;stroke:none"
       transform="scale(1.3333333)" />
    <path
       id="path62"
       d="m 152.801,83.73 h 75.621 c 5.187,0 9.363,4.176 9.363,9.364 0,5.187 -4.176,9.363 -9.363,9.363 h -75.621 c -5.188,0 -9.363,-4.176 -9.363,-9.363 0,-5.188 4.175,-9.364 9.363,-9.364 z"
       style="fill:#0014ff;fill-opacity:0.159278;fill-rule:evenodd;stroke:none"
       transform="scale(1.3333333)" />
    <path
       id="path63"
       d="m 201.008,94.742 c -0.016,0.031 -0.047,0.063 -0.047,0.11 0,0.046 0.062,0.14 0.125,0.14 0.062,0 0.094,-0.031 0.391,-0.344 0.093,-0.078 0.312,-0.281 0.39,-0.359 0.11,0.859 0.438,1.656 1.219,1.656 0.437,0 0.828,-0.25 1.047,-0.406 0.156,-0.109 0.672,-0.531 0.672,-0.641 0,-0.031 -0.032,-0.14 -0.125,-0.14 -0.032,0 -0.047,0.015 -0.141,0.109 -0.703,0.688 -1.109,0.844 -1.422,0.844 -0.5,0 -0.672,-0.563 -0.672,-1.422 0,-0.062 0.032,-0.562 0.063,-0.625 0.015,-0.031 0.015,-0.047 0.234,-0.266 0.891,-0.875 2.438,-2.718 2.438,-4.421 0,-0.188 0,-0.844 -0.641,-0.844 -0.906,0 -1.719,1.797 -1.828,2.047 -0.516,1.187 -0.859,2.468 -0.859,3.765 z m 1.547,-1.531 c 0.031,-0.109 0.5,-2.531 1.109,-3.813 0.297,-0.593 0.531,-1.031 0.875,-1.031 0.375,0 0.375,0.391 0.375,0.578 0,1.813 -1.828,3.719 -2.359,4.266 z"
       style="fill:#000000;fill-opacity:1;fill-rule:nonzero;stroke:none"
       transform="scale(1.3333333)" />
    <path
       id="path64"
       d="m 208.992,98.445 c 0,-0.047 0,-0.062 -0.187,-0.25 -1.36,-1.375 -1.703,-3.437 -1.703,-5.093 0,-1.907 0.406,-3.797 1.75,-5.172 0.14,-0.125 0.14,-0.141 0.14,-0.188 0,-0.062 -0.047,-0.094 -0.109,-0.094 -0.11,0 -1.094,0.735 -1.735,2.125 -0.562,1.188 -0.687,2.407 -0.687,3.329 0,0.843 0.125,2.156 0.719,3.39 0.656,1.344 1.593,2.047 1.703,2.047 0.062,0 0.109,-0.031 0.109,-0.094 z"
       style="fill:#000000;fill-opacity:1;fill-rule:nonzero;stroke:none"
       transform="scale(1.3333333)" />
    <path
       id="path65"
       d="m 213.734,88.105 -1.453,1.485 0.203,0.187 1.25,-1.109 1.266,1.109 0.188,-0.187 z"
       style="fill:#000000;fill-opacity:1;fill-rule:nonzero;stroke:none"
       transform="scale(1.3333333)" />
    <path
       id="path66"
       d="m 215.922,91.711 c 0.047,-0.203 0.047,-0.219 0.047,-0.25 0,-0.25 -0.172,-0.484 -0.516,-0.484 -0.562,0 -0.687,0.515 -0.765,0.812 l -0.282,1.125 c -0.14,0.531 -0.343,1.375 -0.468,1.813 -0.047,0.25 -0.391,0.5 -0.422,0.531 -0.11,0.078 -0.375,0.25 -0.735,0.25 -0.64,0 -0.656,-0.531 -0.656,-0.781 0,-0.672 0.328,-1.532 0.641,-2.313 0.109,-0.281 0.14,-0.359 0.14,-0.547 0,-0.625 -0.625,-0.969 -1.234,-0.969 -1.156,0 -1.703,1.469 -1.703,1.688 0,0.156 0.172,0.156 0.265,0.156 0.125,0 0.204,0 0.25,-0.14 0.36,-1.204 0.969,-1.313 1.125,-1.313 0.079,0 0.188,0 0.188,0.219 0,0.25 -0.125,0.531 -0.188,0.719 -0.421,1.078 -0.656,1.703 -0.656,2.265 0,1.235 1.094,1.422 1.735,1.422 0.281,0 0.64,-0.047 1.046,-0.328 -0.296,1.328 -1.125,2.047 -1.875,2.047 -0.14,0 -0.453,-0.031 -0.656,-0.156 0.344,-0.141 0.516,-0.438 0.516,-0.735 0,-0.39 -0.313,-0.5 -0.531,-0.5 -0.407,0 -0.782,0.36 -0.782,0.828 0,0.563 0.578,0.953 1.453,0.953 1.25,0 2.688,-0.843 3.032,-2.187 z"
       style="fill:#000000;fill-opacity:1;fill-rule:nonzero;stroke:none"
       transform="scale(1.3333333)" />
    <path
       id="path67"
       d="m 218.688,95.805 c 0,-0.719 -0.282,-1.141 -0.704,-1.141 -0.359,0 -0.578,0.266 -0.578,0.578 0,0.297 0.219,0.578 0.578,0.578 0.125,0 0.266,-0.047 0.375,-0.14 0.047,-0.016 0.047,-0.032 0.063,-0.032 0.016,0 0.016,0.016 0.016,0.157 0,0.812 -0.375,1.468 -0.735,1.828 -0.125,0.125 -0.125,0.14 -0.125,0.172 0,0.078 0.063,0.125 0.11,0.125 0.125,0 1,-0.844 1,-2.125 z"
       style="fill:#000000;fill-opacity:1;fill-rule:nonzero;stroke:none"
       transform="scale(1.3333333)" />
    <path
       id="path68"
       d="m 227.613,91.711 c 0.047,-0.203 0.047,-0.219 0.047,-0.25 0,-0.25 -0.172,-0.484 -0.515,-0.484 -0.563,0 -0.688,0.515 -0.766,0.812 l -0.281,1.125 c -0.141,0.531 -0.344,1.375 -0.469,1.813 -0.047,0.25 -0.391,0.5 -0.422,0.531 -0.109,0.078 -0.375,0.25 -0.734,0.25 -0.641,0 -0.657,-0.531 -0.657,-0.781 0,-0.672 0.329,-1.532 0.641,-2.313 0.109,-0.281 0.141,-0.359 0.141,-0.547 0,-0.625 -0.625,-0.969 -1.235,-0.969 -1.156,0 -1.703,1.469 -1.703,1.688 0,0.156 0.172,0.156 0.266,0.156 0.125,0 0.203,0 0.25,-0.14 0.359,-1.204 0.969,-1.313 1.125,-1.313 0.078,0 0.187,0 0.187,0.219 0,0.25 -0.125,0.531 -0.187,0.719 -0.422,1.078 -0.656,1.703 -0.656,2.265 0,1.235 1.093,1.422 1.734,1.422 0.281,0 0.641,-0.047 1.047,-0.328 -0.297,1.328 -1.125,2.047 -1.875,2.047 -0.141,0 -0.453,-0.031 -0.656,-0.156 0.343,-0.141 0.515,-0.438 0.515,-0.735 0,-0.39 -0.312,-0.5 -0.531,-0.5 -0.406,0 -0.781,0.36 -0.781,0.828 0,0.563 0.578,0.953 1.453,0.953 1.25,0 2.687,-0.843 3.031,-2.187 z"
       style="fill:#000000;fill-opacity:1;fill-rule:nonzero;stroke:none"
       transform="scale(1.3333333)" />
    <path
       id="path69"
       d="m 231.316,93.102 c 0,-0.86 -0.125,-2.172 -0.718,-3.407 -0.657,-1.343 -1.594,-2.047 -1.703,-2.047 -0.063,0 -0.11,0.032 -0.11,0.094 0,0.047 0,0.063 0.203,0.266 1.063,1.078 1.688,2.812 1.688,5.094 0,1.859 -0.406,3.781 -1.75,5.156 -0.141,0.125 -0.141,0.14 -0.141,0.187 0,0.063 0.047,0.094 0.11,0.094 0.109,0 1.093,-0.734 1.734,-2.125 0.547,-1.187 0.687,-2.406 0.687,-3.312 z"
       style="fill:#000000;fill-opacity:1;fill-rule:nonzero;stroke:none"
       transform="scale(1.3333333)" />
    <text
       id="text69"
       xml:space="preserve"
       transform="matrix(1.3333333,0,0,1.3333333,195.7284,127.30687)"><tspan
         style="font-style:italic;font-variant:normal;font-weight:normal;font-size:11px;font-family:'Times New Roman';writing-mode:lr-tb;fill:#000000;fill-opacity:1;fill-rule:nonzero;stroke:none"
         x="0"
         y="0"
         id="tspan69">-</tspan><tspan
         style="font-style:italic;font-variant:normal;font-weight:normal;font-size:11px;font-family:'Times New Roman';writing-mode:lr-tb;fill:#000000;fill-opacity:1;fill-rule:nonzero;stroke:none"
         x="44.016872"
         y="1.264901"
         id="tspan70">+</tspan></text>
    <path
       id="path70"
       d="m 160.582,89.352 c 0,-0.547 0.047,-0.625 0.672,-0.625 0.094,0 0.281,0 0.281,-0.188 0,-0.187 -0.156,-0.187 -0.359,-0.187 h -2.969 c -0.187,0 -0.359,0 -0.359,0.187 0,0.188 0.203,0.188 0.281,0.188 0.625,0 0.672,0.093 0.672,0.625 v 2.437 h -2.641 v -2.437 c 0,-0.547 0.047,-0.625 0.672,-0.625 0.109,0 0.281,0 0.281,-0.188 0,-0.187 -0.156,-0.187 -0.359,-0.187 h -2.953 c -0.203,0 -0.375,0 -0.375,0.187 0,0.188 0.203,0.188 0.297,0.188 0.609,0 0.656,0.093 0.656,0.625 v 5.468 c 0,0.516 -0.031,0.625 -0.609,0.625 -0.157,0 -0.344,0 -0.344,0.172 0,0.203 0.172,0.203 0.375,0.203 h 2.953 c 0.203,0 0.359,0 0.359,-0.203 0,-0.172 -0.172,-0.172 -0.297,-0.172 -0.625,0 -0.656,-0.109 -0.656,-0.625 v -2.531 h 2.641 v 2.531 c 0,0.516 -0.031,0.625 -0.61,0.625 -0.171,0 -0.343,0 -0.343,0.172 0,0.203 0.172,0.203 0.359,0.203 h 2.969 c 0.203,0 0.359,0 0.359,-0.203 0,-0.172 -0.187,-0.172 -0.297,-0.172 -0.625,0 -0.656,-0.109 -0.656,-0.625 z m -5.812,-0.016 c 0,-0.141 0,-0.406 -0.094,-0.609 h 1.187 c -0.078,0.203 -0.078,0.468 -0.078,0.609 v 5.5 c 0,0.141 0,0.406 0.078,0.609 h -1.187 c 0.094,-0.203 0.094,-0.468 0.094,-0.609 z m 4.406,0 c 0,-0.141 0,-0.406 -0.078,-0.609 h 1.187 c -0.094,0.203 -0.094,0.468 -0.094,0.609 v 5.5 c 0,0.141 0,0.406 0.094,0.609 h -1.187 c 0.078,-0.203 0.078,-0.468 0.078,-0.609 z"
       style="fill:#000000;fill-opacity:1;fill-rule:nonzero;stroke:none"
       transform="scale(1.3333333)" />
    <path
       id="path71"
       d="m 164.504,98.539 v -0.422 h -1.063 V 88.07 h 1.063 v -0.422 h -1.5 v 10.891 z"
       style="fill:#000000;fill-opacity:1;fill-rule:nonzero;stroke:none"
       transform="scale(1.3333333)" />
    <path
       id="path72"
       d="m 169.645,91.445 c 0.093,-0.125 0.109,-0.14 0.109,-0.234 0,-0.234 -0.141,-0.234 -0.344,-0.234 h -4 l -0.125,1.906 h 0.5 c 0.063,-1.125 0.406,-1.516 1.531,-1.516 h 0.922 l -3.031,3.969 c -0.109,0.125 -0.109,0.141 -0.109,0.25 0,0.234 0.14,0.234 0.359,0.234 h 4.141 l 0.187,-2.203 h -0.5 c -0.109,1.11 -0.281,1.766 -1.719,1.766 h -0.937 z"
       style="fill:#000000;fill-opacity:1;fill-rule:nonzero;stroke:none"
       transform="scale(1.3333333)" />
    <path
       id="path73"
       d="m 173.938,92.68 c 0.062,-0.282 0.078,-0.297 0.406,-0.297 h 0.594 c 0.828,0 0.921,0.265 0.921,0.656 0,0.203 -0.046,0.547 -0.046,0.594 -0.016,0.078 -0.032,0.156 -0.032,0.172 0,0.093 0.078,0.125 0.125,0.125 0.094,0 0.125,-0.047 0.141,-0.203 l 0.219,-1.5 c 0,-0.11 -0.094,-0.11 -0.235,-0.11 h -4.703 c -0.187,0 -0.219,0 -0.265,0.172 l -0.485,1.375 c -0.015,0.047 -0.047,0.109 -0.047,0.156 0,0.063 0.063,0.11 0.125,0.11 0.094,0 0.11,-0.047 0.157,-0.172 0.453,-1.281 0.671,-1.375 1.89,-1.375 h 0.313 c 0.234,0 0.25,0.015 0.25,0.078 0,0.016 -0.032,0.172 -0.047,0.203 l -1.047,4.188 c -0.078,0.312 -0.094,0.39 -0.922,0.39 -0.266,0 -0.344,0 -0.344,0.156 0,0 0,0.11 0.141,0.11 0.219,0 0.766,-0.031 0.984,-0.031 h 0.672 c 0.219,0 0.781,0.031 1,0.031 0.063,0 0.188,0 0.188,-0.156 0,-0.11 -0.094,-0.11 -0.297,-0.11 -0.203,0 -0.266,0 -0.469,-0.015 -0.25,-0.016 -0.281,-0.047 -0.281,-0.157 0,-0.031 0,-0.062 0.031,-0.14 z"
       style="fill:#000000;fill-opacity:1;fill-rule:nonzero;stroke:none"
       transform="scale(1.3333333)" />
    <path
       id="path74"
       d="m 178.668,88.039 c 0,-0.203 0,-0.391 -0.219,-0.391 -0.219,0 -0.219,0.188 -0.219,0.391 v 10.109 c 0,0.204 0,0.391 0.219,0.391 0.219,0 0.219,-0.187 0.219,-0.391 z"
       style="fill:#000000;fill-opacity:1;fill-rule:nonzero;stroke:none"
       transform="scale(1.3333333)" />
    <path
       id="path75"
       d="m 185.48,91.727 c 0.079,-0.157 0.11,-0.235 0.813,-0.235 v -0.515 c -0.266,0.015 -0.594,0.031 -0.859,0.031 -0.282,0 -0.766,-0.016 -1,-0.031 v 0.515 c 0.031,0 0.515,0 0.515,0.125 0,0.016 -0.047,0.125 -0.062,0.141 l -1.25,2.672 -1.375,-2.938 h 0.578 v -0.515 c -0.36,0.015 -1.344,0.031 -1.344,0.031 -0.312,0 -0.797,-0.016 -1.25,-0.031 v 0.515 h 0.703 l 2.031,4.328 -0.25,0.532 c -0.234,0.515 -0.578,1.25 -1.359,1.25 -0.156,0 -0.172,0 -0.266,-0.032 0.11,-0.047 0.36,-0.203 0.36,-0.578 0,-0.359 -0.266,-0.625 -0.641,-0.625 -0.297,0 -0.625,0.203 -0.625,0.625 0,0.563 0.516,1.016 1.172,1.016 0.844,0 1.469,-0.688 1.766,-1.297 z"
       style="fill:#000000;fill-opacity:1;fill-rule:nonzero;stroke:none"
       transform="scale(1.3333333)" />
    <path
       id="path76"
       d="m 188.496,87.648 h -1.5 v 0.422 h 1.063 v 10.047 h -1.063 v 0.422 h 1.5 z"
       style="fill:#000000;fill-opacity:1;fill-rule:nonzero;stroke:none"
       transform="scale(1.3333333)" />
  </g>
</svg>
